<svg width="100" height="40" viewBox="0 0 100 40" fill="none" xmlns="http://www.w3.org/2000/svg">
<path d="M0 12.7099L3.89864 0L86.2573 4.01365L100 28L0 12.7099Z" fill="url(#paint0_linear)"/>
<path d="M18.3778 29.0498L14.9221 19.4032C14.752 18.9753 14.5753 18.4673 14.392 17.879C14.2088 17.2907 14.0255 16.6556 13.8423 15.9737C13.6721 16.6556 13.4954 17.2974 13.3121 17.899C13.1289 18.4873 12.9522 19.0021 12.782 19.4433L9.34597 29.0498H18.3778ZM27.7041 40H23.6202C23.162 40 22.789 39.8864 22.501 39.6591C22.2131 39.4184 21.9971 39.1242 21.8531 38.7766L19.7326 32.8603H7.97157L5.85105 38.7766C5.74633 39.0841 5.54345 39.3649 5.24238 39.6189C4.94132 39.873 4.56827 40 4.12322 40H0L11.172 11H16.5518L27.7041 40Z" fill="black"/>
<path d="M45.6435 29.0498L42.1879 19.4032C42.0177 18.9753 41.841 18.4673 41.6577 17.879C41.4745 17.2907 41.2912 16.6556 41.108 15.9737C40.9378 16.6556 40.7611 17.2974 40.5779 17.899C40.3946 18.4873 40.2179 19.0021 40.0477 19.4433L36.6117 29.0498H45.6435ZM54.9699 40H50.8859C50.4278 40 50.0547 39.8864 49.7668 39.6591C49.4788 39.4184 49.2628 39.1242 49.1188 38.7766L46.9983 32.8603H35.2373L33.1168 38.7766C33.0121 39.0841 32.8092 39.3649 32.5081 39.6189C32.2071 39.873 31.834 40 31.389 40H27.2657L38.4377 11H43.8175L54.9699 40Z" fill="black"/>
<path d="M63.1902 23.1535H64.4272C64.9246 23.1535 65.3369 23.0867 65.6642 22.953C65.9914 22.8059 66.2728 22.5786 66.5085 22.2711L74.3426 12.1432C74.6698 11.7153 75.0101 11.4212 75.3636 11.2607C75.7301 11.0869 76.1882 11 76.738 11H81.2932L71.7312 23.0533C71.1684 23.7886 70.5859 24.3101 69.9837 24.6176C70.4157 24.778 70.8018 25.0053 71.1422 25.2994C71.4956 25.5802 71.8294 25.9546 72.1435 26.4225L82 40H77.3466C76.7183 40 76.2471 39.9131 75.933 39.7393C75.6319 39.5521 75.3767 39.2847 75.1672 38.9371L67.1368 28.2275C66.8881 27.8665 66.6001 27.6125 66.2728 27.4654C65.9456 27.3183 65.4744 27.2448 64.8592 27.2448H63.1902V40H57.9086V11H63.1902V23.1535Z" fill="black"/>
<defs>
<linearGradient id="paint0_linear" x1="14.1326" y1="-2.77133" x2="85.668" y2="0.111277" gradientUnits="userSpaceOnUse">
<stop stop-color="#E02720"/>
<stop offset="1" stop-color="#AB1916"/>
</linearGradient>
</defs>
</svg>